<svg width="40" height="40" viewBox="0 0 40 40" fill="none" xmlns="http://www.w3.org/2000/svg">
<path d="M19.8371 23.7395C21.8128 23.7395 23.4143 22.138 23.4143 20.1623C23.4143 18.1867 21.8128 16.5851 19.8371 16.5851C17.8615 16.5851 16.2599 18.1867 16.2599 20.1623C16.2599 22.138 17.8615 23.7395 19.8371 23.7395Z" fill="white"/>
<path d="M24.3086 11.382H15.3656C14.0649 11.382 12.9267 11.7885 12.195 12.5202C11.4633 13.2519 11.0568 14.39 11.0568 15.6908V24.6338C11.0568 25.9346 11.4633 27.0728 12.2763 27.8858C13.0893 28.6175 14.1462 29.024 15.4469 29.024H24.3086C25.6094 29.024 26.7476 28.6175 27.4793 27.8858C28.2923 27.1541 28.6988 26.0159 28.6988 24.7151V15.7721C28.6988 14.4713 28.2923 13.4145 27.5606 12.6015C26.7476 11.7885 25.6907 11.382 24.3086 11.382ZM19.8371 25.6907C16.7477 25.6907 14.3088 23.1704 14.3088 20.1623C14.3088 17.0729 16.829 14.6339 19.8371 14.6339C22.8452 14.6339 25.4468 17.0729 25.4468 20.1623C25.4468 23.2517 22.9265 25.6907 19.8371 25.6907ZM25.6094 15.6908C24.8777 15.6908 24.3086 15.1217 24.3086 14.39C24.3086 13.6583 24.8777 13.0893 25.6094 13.0893C26.3411 13.0893 26.9102 13.6583 26.9102 14.39C26.9102 15.1217 26.3411 15.6908 25.6094 15.6908Z" fill="white"/>
<path d="M19.9997 0C8.94297 0 0 8.94297 0 19.9997C0 31.0565 8.94297 39.9995 19.9997 39.9995C31.0565 39.9995 39.9995 31.0565 39.9995 19.9997C40.0808 8.94297 31.0565 0 19.9997 0ZM30.65 24.7151C30.65 26.585 29.9996 28.211 28.8614 29.3492C27.7232 30.4874 26.0972 31.0565 24.3086 31.0565H15.4469C13.6584 31.0565 12.0324 30.4874 10.8942 29.3492C9.67467 28.211 9.10557 26.585 9.10557 24.7151V15.7721C9.10557 12.0324 11.6259 9.43077 15.4469 9.43077H24.3899C26.2598 9.43077 27.8045 10.0812 28.9427 11.2194C30.0809 12.3576 30.65 13.9023 30.65 15.7721V24.7151V24.7151Z" fill="white"/>
</svg>
