<svg width="15" height="15" viewBox="0 0 15 15" fill="none" xmlns="http://www.w3.org/2000/svg">
<path d="M7.5 0C3.35766 0 0 3.35766 0 7.5C0 11.6423 3.35812 15 7.5 15C11.6423 15 15 11.6423 15 7.5C15 3.35766 11.6423 0 7.5 0ZM8.46891 8.8875C8.625 9.02297 8.74641 9.50063 8.74641 9.72V11.6625H7.63781H6.52781C6.52781 11.6625 6.53109 11.0039 6.52781 10.5525C5.00906 10.8792 4.58531 9.72 4.58531 9.72C4.30781 9.165 4.03031 8.8875 4.03031 8.8875C3.47531 8.55797 4.03031 8.61 4.03031 8.61C4.58531 8.61 4.86281 9.165 4.86281 9.165C5.34984 9.99188 6.21656 9.85875 6.52781 9.72C6.52781 9.4425 6.64922 9.02297 6.80531 8.8875C5.59312 8.75109 4.58437 8.055 4.58437 6.6675C4.58437 5.28 4.86281 5.0025 5.14031 4.725C5.08406 4.58812 4.85203 4.08281 5.14875 3.3375C5.14875 3.3375 5.69391 3.3375 6.24891 4.17C6.52406 3.89484 7.35891 3.8925 7.63687 3.8925C7.91391 3.8925 8.74922 3.89484 9.02391 4.17C9.57891 3.3375 10.1255 3.3375 10.1255 3.3375C10.4222 4.08281 10.1902 4.58812 10.1339 4.725C10.4114 5.0025 10.6889 5.28 10.6889 6.6675C10.6894 8.055 9.68156 8.75109 8.46891 8.8875Z" fill="white"/>
</svg>
