<svg width="40" height="40" viewBox="0 0 40 40" fill="none" xmlns="http://www.w3.org/2000/svg">
<path d="M20.0008 0C8.95468 0 0 8.9563 0 20.0008C0 31.0469 8.95468 40 20.0008 40C31.0469 40 40 31.0469 40 20.0008C40 8.9563 31.0461 0 20.0008 0ZM30.0755 15.9682C30.0861 16.1842 30.0902 16.4011 30.0902 16.6204C30.0902 23.2814 25.0203 30.9608 15.7497 30.9608C12.9037 30.9608 10.2534 30.1267 8.02307 28.6972C8.4178 28.7435 8.81823 28.7671 9.22515 28.7671C11.5871 28.7671 13.7606 27.9613 15.4849 26.6098C13.2797 26.5684 11.4189 25.1105 10.7773 23.1084C11.0843 23.1685 11.4003 23.1985 11.7251 23.1985C12.1849 23.1985 12.63 23.1384 13.0531 23.0223C10.7464 22.5593 9.0091 20.5206 9.0091 18.0807C9.0091 18.0588 9.0091 18.0377 9.00991 18.0158C9.68892 18.3934 10.4662 18.62 11.293 18.6468C9.9399 17.7412 9.05052 16.2005 9.05052 14.4509C9.05052 13.5275 9.29906 12.6608 9.73278 11.9168C12.219 14.9659 15.9332 16.9729 20.1226 17.1824C20.0365 16.8145 19.9919 16.4287 19.9919 16.034C19.9919 13.2513 22.2482 10.9942 25.0325 10.9942C26.4823 10.9942 27.7916 11.6066 28.711 12.5853C29.8595 12.3603 30.9381 11.9396 31.912 11.3621C31.5343 12.5398 30.7359 13.5275 29.6946 14.1504C30.7156 14.0286 31.687 13.7573 32.5902 13.3569C31.916 14.3697 31.0608 15.2575 30.0755 15.9682Z" fill="white"/>
</svg>
